<?xml version="1.0" encoding="utf-8"?>
<!-- Generator: Adobe Illustrator 25.2.0, SVG Export Plug-In . SVG Version: 6.00 Build 0)  -->
<svg version="1.1" id="BLI_x5F_LOGO" xmlns="http://www.w3.org/2000/svg" xmlns:xlink="http://www.w3.org/1999/xlink" x="0px"
	 y="0px" viewBox="0 0 340.2 149.3" style="enable-background:new 0 0 340.2 149.3;" xml:space="preserve">
<style type="text/css">
	.st0{fill:#E20000;}
	.st1{fill:#FFFFFF;}
</style>
<g>
	<rect class="st0" width="340.2" height="149.3"/>
	<g>
		<path class="st1" d="M208.8,99.1v17.2c-3.6,1.6-8.1,2.5-12.9,2.5c-17.2,0-32.1-13.2-32.1-31.4c0-18.3,15-31.5,32.1-31.5
			c4.8,0,9.2,0.9,12.9,2.6v17.1c-3.4-2.2-6.7-3.7-11.8-3.7c-8.3,0-15.8,6.2-15.8,15.7c0,9.3,7.5,15.5,15.8,15.5
			C202.2,102.8,205.4,101.4,208.8,99.1z"/>
		<path class="st1" d="M236.1,28.5v54.6l20.3-25.9h21.3l-23.1,28l24,32.1h-21.4l-21-29.3v29.3H218V28.5H236.1z"/>
		<path class="st1" d="M128.9,100.2c-4.4,1.1-9.3-0.5-9.3-8.7c0-15.4,0-63.1,0-63.1h0v-0.1h-18.2c0,0,0,45.7,0,62.8
			c0,16.9,7.8,27.5,27.6,26.2V100.2z"/>
		<path class="st1" d="M78.4,72.2c6-2.8,11.1-8.8,11.1-17.4C89.5,41,79.4,32,60,32H32.2v85.3h32c19,0,30.5-9.6,30.5-24.5
			C94.7,82.6,87.7,75,78.4,72.2z M51,47.5h8.2c7.5,0,12.3,3.5,12.3,10c0,6.4-4.8,9.9-12.3,9.9H51V47.5z M63,101.8H51V81.2H63
			c7.8,0,12.7,4.2,12.7,10.3C75.8,97.7,70.8,101.8,63,101.8z"/>
		<g>
			<rect x="138.4" y="57.1" class="st1" width="18.2" height="60.2"/>
			<path class="st1" d="M147.4,48.5h0.2c5.9,0,10.8-4.7,10.8-10.7c0-6.1-4.9-10.8-10.8-10.8h-0.2c-6,0-10.8,4.7-10.8,10.8
				C136.6,43.9,141.4,48.5,147.4,48.5z"/>
		</g>
		<rect x="305.1" y="13.8" class="st1" width="4" height="121.7"/>
	</g>
</g>
</svg>
