<svg height="130.40759" viewBox="0 0 637.73096 130.40759" width="637.73096" xmlns="http://www.w3.org/2000/svg"><g transform="translate(-92.563066 -290.01555)"><path d="m338.03176 296.05912v2.22491h10.37318v82.27986h-10.37318v2.21125h38.82934v-2.21125h-9.24723v-41.75485h6.52957c12.70836.24171 17.49513 3.2091 17.49513 23.02975 0 13.55758 3.2219 22.92603 16.38728 22.92603 9.70891 0 13.25542-2.40109 16.55458-5.94173l-1.47865-1.4426c-1.61175 1.74729-4.1155 2.93035-5.34035 2.93035-4.93138 0-6.66662-1.82623-6.90941-21.1806-.24275-13.17742-9.10997-20.18946-27.20811-21.79991v-.24426c12.42637-.86912 28.9445-5.78614 28.9445-20.70552 0-18.09791-21.93227-20.32143-35.48313-20.32143zm102.95854.50194c-5.54293 0-9.95716 4.42921-9.95716 9.97086 0 5.54421 4.41423 9.97528 9.95716 9.97528 5.55997 0 10.0024-4.43107 10.0024-9.97528 0-5.54165-4.44246-9.97086-10.0024-9.97086zm163.34812 0c-5.55647 0-9.97973 4.42921-9.97973 9.97086 0 5.54421 4.42329 9.97528 9.97973 9.97528 5.54258 0 9.9617-4.43107 9.9617-9.97528 0-5.54165-4.41908-9.97086-9.9617-9.97086zm-236.72455 1.72297h9.00756c10.46979 0 15.27489 1.48196 15.27489 16.74444.37298 15.40372-3.19567 20.82105-17.35948 21.5603h-6.92297zm81.88659 27.09038c-2.59417 3.20562-11.71415 3.20608-16.75805 3.20608h-9.0754v2.22491h8.83122v49.75849h-5.05545l-1.95348 2.21125h31.07434v-2.21125h-7.06318zm35.43792 0c-2.58721 3.20562-11.69714 3.20608-16.75355 3.20608h-8.13935v2.22491h7.89971v49.75849h-7.09482v2.21125h31.34112v-2.21125h-7.25311v-33.7556c0-6.28646 6.15452-15.26596 13.04108-15.26596 3.5735 0 7.27571 1.48404 7.27571 10.10631v38.91525h-7.03603v2.21125h30.00262l-.77778-2.21125h-5.18657v-34.35709c0-13.32281-5.67211-19.09599-17.36851-19.09599-8.25486.00023-16.39088 4.30673-19.71084 11.44495h-.23968zm127.8876 0c-2.58721 3.20562-11.70164 3.20608-16.75805 3.20608h-6.23565l1.12596 2.22491h4.87005v49.75849h-8.36998v2.21125h33.20412v-2.21125h-7.83645zm86.22763 0c-2.59071 3.20562-11.69717 3.20608-16.75355 3.20608h-8.90809v2.22491h8.90809v49.75849h-8.76794v2.21125h34.19444v-2.21125h-8.42877v-31.41795c0-9.47819 2.96069-16.12235 10.72586-19.57061h.48837c-2.1045 2.20986-2.94828 4.17963-2.94828 7.27112 0 4.80219 3.54733 7.99484 8.37453 7.99484 5.91417 0 9.35578-4.32224 9.35578-8.99408 0-5.90098-3.93637-9.47796-9.72202-9.47796-7.8937 0-13.93706 5.41571-16.27424 11.5716h-.24418zm-120.10998.74179c-4.07709 0-7.14066 2.70623-9.47788 5.42613-3.57699-2.59372-8.5184-4.43152-15.4015-4.43152-10.35589 0-21.44722 6.77033-21.44722 17.98354 0 6.78284 3.71802 12.0726 10.23299 15.03536v.2306c-4.81676.61329-12.31758 3.94857-12.31758 14.16253 0 6.16932 2.82366 10.8474 7.99466 12.32196v.25328c-4.914 1.34166-10.58571 6.27812-10.58571 12.19554 0 9.11749 10.70713 16.12953 24.38648 16.12953 17.14172 0 28.33859-11.57067 28.33859-26.60673 0-11.94319-5.91205-17.37025-17.98351-17.11534h-20.46147c-3.06997 0-7.26663-.1278-7.26663-3.44571-.00003-3.09172 5.29948-6.41658 9.98427-6.41658 1.35787 0 2.72465.36951 4.06516.75082 1.47245.48295 3.08049.73253 5.05997.73253 10.58511 0 21.89946-6.02878 21.89946-17.73026 0-3.94649-1.82057-9.48884-5.27254-12.43979 2.2122-2.2219 3.33231-4.93045 8.12129-5.55741v.24425c-2.57682 1.35231-3.3281 2.96624-3.3281 5.43077 0 2.83565 1.97885 5.67038 5.67043 5.67038 3.959 0 6.16787-2.96461 6.16787-6.2853 0-4.31808-4.69094-6.53858-8.37903-6.53858zm69.76797.98118c-14.52672 0-27.08149 12.56852-27.08149 29.19327 0 16.02234 11.70208 27.96761 27.44773 27.96761 15.17266 0 22.6725-9.34693 25.3813-21.54664h-2.22024c-2.69837 11.45052-9.84872 18.59406-19.44405 18.59406-11.47069 0-12.69741-9.60692-12.69741-17.98354v-10.34616h33.98638c-.11809-13.308-12.4083-26.12147-25.37222-25.8786zm-94.53431 2.22467c5.80308 0 7.63525 1.6086 7.77763 15.7723-.14238 15.14603-3.34633 16.00289-7.77763 16.00289-4.914 0-7.52439-1.5968-7.52439-16.37356 0-9.98846 1.11362-15.40163 7.52439-15.40163zm93.68872 0c5.90028 0 7.76403 4.06225 7.76403 10.84347v10.59481h-15.5326v-10.59481c0-8.24929 3.58035-10.84347 7.76857-10.84347zm-107.3719 57.89804h19.35365c12.31452 0 16.38724 1.09439 16.38724 8.62342 0 8.98992-11.08289 17.36839-23.53635 17.36839-11.07475 0-17.11289-7.50911-17.35946-13.4344 0-5.40182 1.85228-8.98135 5.15492-12.55741z"/><path d="m132.02382 352.36014c-12.62012 0-22.88929-10.26525-22.88929-22.89998 0-12.60384 10.26917-22.86075 22.88929-22.86075 12.61998 0 22.88939 10.25691 22.88939 22.86075 0 12.63473-10.26941 22.89998-22.88939 22.89998zm0-57.34459c-19.00409 0-34.460754 15.45395-34.460754 34.44461 0 19.0094 15.456664 34.47412 34.460754 34.47412 18.99326 0 34.45277-15.46472 34.45277-34.47412 0-18.99066-15.45951-34.44461-34.45277-34.44461" fill="#e6007e"/><path d="m287.47897 306.59941c12.60799 0 22.86212 10.25691 22.86212 22.86075 0 12.63473-10.25413 22.89998-22.86212 22.89998-12.6337 0-22.90137-10.26525-22.90137-22.89998 0-12.60384 10.26767-22.86075 22.90137-22.86075zm0 57.33487c18.99343 0 34.44877-15.46472 34.44877-34.47412 0-18.99066-15.45534-34.44461-34.44877-34.44461-19.00663 0-34.46614 15.45395-34.46614 34.44461 0 19.0094 15.45951 34.47412 34.46614 34.47412" fill="#009fe3"/><path d="m209.74523 352.36014c-12.62015 0-22.88366-10.26525-22.88366-22.89998 0-12.60384 10.26351-22.86075 22.88366-22.86075 12.62571 0 22.89477 10.25691 22.89477 22.86075 0 12.63473-10.26906 22.89998-22.89477 22.89998zm0-57.34459c-19.00385 0-34.46058 15.45395-34.46058 34.44461 0 19.0094 15.45673 34.47412 34.46058 34.47412 18.99864 0 34.46093-15.46472 34.46093-34.47412 0-18.99066-15.46229-34.44461-34.46093-34.44461" fill="#ffde13"/></g></svg>